<?xml version="1.0" encoding="utf-8"?>
<!-- Generator: Adobe Illustrator 18.0.0, SVG Export Plug-In . SVG Version: 6.00 Build 0)  -->
<!DOCTYPE svg PUBLIC "-//W3C//DTD SVG 1.1//EN" "http://www.w3.org/Graphics/SVG/1.1/DTD/svg11.dtd">
<svg version="1.1" id="Layer_1" xmlns="http://www.w3.org/2000/svg" xmlns:xlink="http://www.w3.org/1999/xlink" x="0px" y="0px"
	 viewBox="8.5 23 68.6 68.3" enable-background="new 8.5 23 68.6 68.3" xml:space="preserve">
<path fill="#EDEDED" d="M74,37.3c-0.6-0.1-1.2,0.1-1.7,0.5L58.1,52.3c-1.4,1.4-6.3,0.4-9.5-0.9c-1.3-3.2-2.3-8.1-0.9-9.5l14.6-14.2
	c0.4-0.4,0.6-1.1,0.5-1.7c-0.1-0.6-0.5-1.1-1.1-1.3c-9.1-3.6-19.4-1.5-26.3,5.4c-6.1,6.1-8.4,14.6-6.6,22.6
	c-0.2,3.9-3.8,8.6-5.7,10.4L8.5,77.8c3.6,5.3,8.1,9.9,13.4,13.5l14.2-14.1c1.9-1.9,7-5.4,10.9-5.8c0.6,0,1.8,0.1,2.1,0.2l0,0
	c7.6,1.1,15.3-1.4,20.8-6.9c6.9-6.9,9-17.2,5.4-26.3C75.1,37.8,74.6,37.4,74,37.3z"/>
<g>
	<path fill="#E1E1E1" d="M76.9,44.6c0.1,1.1,0.2,2.2,0.2,3.3c-0.1-2.8-0.6-5.7-1.7-8.4c-0.2-0.6-0.7-1-1.3-1.1
		c-0.6-0.1-1.2,0.1-1.7,0.5L58.1,53.3c-1.4,1.4-6.3,0.4-9.5-0.9c-0.1-0.3-0.2-0.6-0.3-0.9L14.5,85.2c2.2,2.3,4.7,4.3,7.4,6.1
		l14.2-14.1c1.9-1.9,7-5.4,10.9-5.8c0.6,0,1.8,0.1,2.1,0.2l0,0c7.6,1.1,15.3-1.4,20.8-6.9C75.3,59.3,77.7,51.9,76.9,44.6z M76,40.4
		l-0.1-0.5L76,40.4z M76.8,44.1c0-0.3-0.1-0.6-0.1-0.9C76.7,43.5,76.8,43.8,76.8,44.1z M76.5,42.3l-0.2-0.8L76.5,42.3z"/>
</g>
<path fill="#F4F4F4" d="M35.3,31.2c6.9-6.9,17.2-9,26.3-5.4c0.5,0.2,0.9,0.7,1.1,1.2c0.1-0.3,0.1-0.6,0-0.9
	c-0.1-0.6-0.5-1.1-1.1-1.3c-9.1-3.6-19.4-1.5-26.3,5.4c-4.8,4.8-7.2,11.2-7.2,17.5C28.4,41.7,30.8,35.7,35.3,31.2z M23.1,63.2
	L8.5,77.8l0.4,0.6l14.2-14.2c1.9-1.9,5.4-6.5,5.7-10.4l-0.1-0.4C28.2,57.2,24.9,61.4,23.1,63.2z"/>
<path fill="#CCD0D2" d="M28.7,67.7L12.9,83.5c1.1,1.2,2.3,2.4,3.5,3.5l15.8-15.8c1-1,1-2.6,0-3.5S29.7,66.7,28.7,67.7z"/>
<path fill="#B8BCBE" d="M28.7,67.7L12.9,83.5l0.5,0.5l15.3-15.3c1-1,2.6-1,3.5,0c0.4,0.4,0.6,0.8,0.7,1.3c0.2-0.8-0.1-1.7-0.7-2.3
	C31.3,66.7,29.7,66.7,28.7,67.7z"/>
</svg>
