<?xml version="1.0" encoding="utf-8"?>
<!-- Generator: Adobe Illustrator 18.1.1, SVG Export Plug-In . SVG Version: 6.00 Build 0)  -->
<svg version="1.1" id="Слой_1" xmlns="http://www.w3.org/2000/svg" xmlns:xlink="http://www.w3.org/1999/xlink" x="0px" y="0px"
	 viewBox="-294 381 81.2 32" enable-background="new -294 381 81.2 32" xml:space="preserve">
<g>
	<g>
		<g>
			<path fill="#FFCC33" d="M-273,392.8c0-5.3-4.3-9.6-9.6-9.6c-5.3,0-9.6,4.3-9.6,9.6c0,4.1,2.5,7.5,6.1,8.9v2.4h7v-2.4
				C-275.5,400.3-273,396.8-273,392.8z"/>
		</g>
		<g>
			<path fill="#FFCC33" d="M-273,392.8c0-5.3-4.3-9.6-9.6-9.6c-5.3,0-9.6,4.3-9.6,9.6c0,4.1,2.5,7.5,6.1,8.9v2.4h7v-2.4
				C-275.5,400.3-273,396.8-273,392.8z"/>
		</g>
	</g>
	<path fill="#FFFFFF" d="M-284.2,395.4c0.1,0,0.2,0,0.4,0c0.5,0,0.9-0.1,1.3-0.3c0.4,0.2,0.8,0.3,1.3,0.3c0.1,0,0.2,0,0.4,0
		c-0.3,2.8-0.6,6.6-0.6,6.9l0.4,0h-2.8l0.4,0C-283.6,402.1-283.9,398.2-284.2,395.4z M-282.8,392.8c0-0.1,0.1-0.1,0.2-0.1
		c0,0,0,0,0,0l0,0l0,0c0.1,0,0.2,0,0.2,0.1c0.1,0.2,0.1,0.6-0.1,1c0,0.1-0.1,0.1-0.1,0.2c-0.1-0.1-0.1-0.2-0.1-0.2
		C-282.9,393.4-282.9,393-282.8,392.8z M-280.6,402.3c0-0.4,0.3-4.4,0.6-7c0.9-0.2,1.4-0.7,1.6-1.1c0.3-0.5,0.2-1.1-0.3-1.5
		c-0.4-0.4-0.8-0.4-1-0.3c-0.6,0.2-0.9,1-1,1.2c-0.1,0.3-0.1,0.6-0.2,1c-0.1,0-0.3,0-0.5,0c-0.2,0-0.4,0-0.6-0.1
		c0.1-0.1,0.2-0.2,0.2-0.3c0.4-0.6,0.4-1.3,0.1-1.8c-0.2-0.3-0.6-0.5-1-0.5c-0.4,0-0.8,0.2-1,0.5c-0.3,0.5-0.3,1.2,0.1,1.8
		c0.1,0.1,0.1,0.2,0.2,0.3c-0.2,0.1-0.4,0.1-0.6,0.1c-0.2,0-0.3,0-0.5,0c-0.1-0.4-0.1-0.7-0.2-1c-0.1-0.3-0.4-1.1-1-1.2
		c-0.2-0.1-0.6-0.1-1,0.3c-0.4,0.4-0.5,1-0.3,1.5c0.2,0.5,0.7,0.9,1.6,1.1c0.3,2.6,0.6,6.6,0.6,7 M-279.8,394.4
		c0-0.2,0.1-0.5,0.1-0.6c0-0.2,0.2-0.5,0.3-0.6c0,0,0,0,0.1,0.1c0.2,0.2,0.2,0.4,0.1,0.6C-279.3,394-279.5,394.2-279.8,394.4z
		 M-285.3,394.4c-0.3-0.2-0.6-0.4-0.6-0.5c-0.1-0.2-0.1-0.4,0.1-0.6c0,0,0.1-0.1,0.1-0.1c0.1,0,0.3,0.4,0.3,0.6
		C-285.4,393.9-285.3,394.1-285.3,394.4z"/>
	<path fill="#FF9933" d="M-285.2,400.8c-3.6-1.4-6.1-4.8-6.1-8.9c0-2.4,0.9-4.7,2.4-6.3c-2,1.8-3.3,4.3-3.3,7.2
		c0,4.1,2.5,7.5,6.1,8.9v1.6v0.8h7v-0.9h-6.1V400.8z"/>
	<path fill="#B8BCBE" d="M-283,406.7h0.9c1.2,0,2.2,1,2.2,2.2c0,1.2-1,2.2-2.2,2.2h-0.9c-1.2,0-2.2-1-2.2-2.2
		S-284.2,406.7-283,406.7z"/>
	<path fill="#CCD0D2" d="M-285.2,402.3h5.2c1,0,1.7,0.8,1.7,1.7v3.5c0,1-0.8,1.7-1.7,1.7h-5.2c-1,0-1.7-0.8-1.7-1.7V404
		C-286.9,403.1-286.1,402.3-285.2,402.3z"/>
	<g>
		<g>
			<path fill="#FFFFFF" d="M-286.9,407.5h8.7v-0.9l-8.7,0V407.5z M-286.9,404v0.9h8.7V404H-286.9z"/>
		</g>
		<g>
			<path fill="#FFFFFF" d="M-286.9,407.5h8.7v-0.9l-8.7,0V407.5z M-286.9,404v0.9h8.7V404H-286.9z"/>
		</g>
	</g>
</g>
<text transform="matrix(1 0 0 1 -268.5624 399.275)" fill="#FFCC33" font-family="'Oswald-Bold'" font-size="17.3641">HOW</text>
<text transform="matrix(1 0 0 1 -235.581 399.275)" fill="#FF9933" font-family="'Oswald-Bold'" font-size="17.3641">-</text>
<text transform="matrix(1 0 0 1 -231.9438 399.275)" fill="#FFCC33" font-family="'Oswald-Bold'" font-size="17.3641">TO</text>
<text transform="matrix(1 0 0 1 -271.2499 410.275)" fill="#FF9933" font-family="'Oswald-Bold'" font-size="17.3641">.</text>
<text transform="matrix(1 0 0 1 -266.8242 410.275)" fill="#FF9933" font-family="'Oswald-Regular'" font-size="10.4184">COM</text>
<text transform="matrix(1 0 0 1 -247.0766 410.275)" fill="#CCD0D2" font-family="'Oswald-Regular'" font-size="10.4184">MUNITY</text>
</svg>
