<?xml version="1.0" encoding="utf-8"?>
<!-- Generator: Adobe Illustrator 18.0.0, SVG Export Plug-In . SVG Version: 6.00 Build 0)  -->
<!DOCTYPE svg PUBLIC "-//W3C//DTD SVG 1.1//EN" "http://www.w3.org/Graphics/SVG/1.1/DTD/svg11.dtd">
<svg version="1.1" id="Слой_1" xmlns="http://www.w3.org/2000/svg" xmlns:xlink="http://www.w3.org/1999/xlink" x="0px" y="0px"
	 viewBox="-0.5 -0.5 23 33" enable-background="new -0.5 -0.5 23 33" xml:space="preserve">
<g>
	<g>
		<path fill="none" stroke="#EFC75E" stroke-miterlimit="10" d="M22,11c0-6.1-4.9-11-11-11S0,4.9,0,11c0,4.7,2.9,8.6,7,10.2V24h8
			v-2.8C19.1,19.6,22,15.7,22,11z"/>
	</g>
	<g>
		<path fill="none" stroke="#EFC75E" stroke-miterlimit="10" d="M22,11c0-6.1-4.9-11-11-11S0,4.9,0,11c0,4.7,2.9,8.6,7,10.2V24h8
			v-2.8C19.1,19.6,22,15.7,22,11z"/>
	</g>
</g>
<path fill="none" stroke="#A6B5BA" stroke-width="0.5" stroke-miterlimit="10" d="M9.1,14.1c0.1,0,0.3,0,0.4,0
	c0.6,0,1.1-0.1,1.5-0.4c0.4,0.2,0.9,0.4,1.5,0.4c0.1,0,0.3,0,0.4,0c-0.4,3.2-0.7,7.6-0.7,7.9l0.4,0H9.4l0.4,0
	C9.8,21.7,9.5,17.3,9.1,14.1z M10.7,11.1c0-0.1,0.1-0.1,0.2-0.1c0,0,0,0,0,0l0,0l0,0c0.1,0,0.2,0,0.2,0.1c0.1,0.2,0.1,0.7-0.1,1.1
	c0,0.1-0.1,0.2-0.2,0.2c-0.1-0.1-0.1-0.2-0.2-0.2C10.6,11.7,10.6,11.3,10.7,11.1z M13.3,22c0-0.5,0.4-5,0.7-8.1
	c1-0.3,1.6-0.8,1.8-1.3c0.3-0.6,0.2-1.3-0.3-1.7c-0.5-0.4-0.9-0.4-1.1-0.4c-0.7,0.2-1.1,1.1-1.1,1.4c-0.1,0.3-0.1,0.7-0.2,1.2
	c-0.2,0-0.3,0-0.5,0c-0.3,0-0.5,0-0.7-0.1c0.1-0.1,0.2-0.2,0.2-0.4c0.4-0.7,0.4-1.5,0.1-2.1C11.9,10.2,11.5,10,11,10
	c-0.5,0-0.9,0.2-1.2,0.6c-0.4,0.5-0.3,1.4,0.1,2.1c0.1,0.1,0.2,0.3,0.2,0.4c-0.2,0.1-0.4,0.1-0.7,0.1c-0.2,0-0.4,0-0.5,0
	c-0.1-0.5-0.1-0.8-0.2-1.2c-0.1-0.3-0.4-1.2-1.1-1.4c-0.2-0.1-0.7-0.1-1.1,0.4C6,11.4,5.9,12,6.2,12.6C6.4,13.1,7,13.7,8,13.9
	c0.4,3,0.7,7.5,0.7,8.1 M14.1,12.9c0-0.3,0.1-0.5,0.1-0.7c0.1-0.2,0.3-0.6,0.4-0.7c0,0,0,0,0.1,0.1c0.2,0.2,0.2,0.4,0.1,0.7
	C14.8,12.4,14.5,12.7,14.1,12.9z M7.9,12.9c-0.4-0.2-0.6-0.4-0.7-0.6C7,12,7,11.7,7.2,11.6c0.1-0.1,0.1-0.1,0.1-0.1
	c0.1,0.1,0.4,0.4,0.4,0.7C7.8,12.3,7.8,12.6,7.9,12.9z"/>
<path fill="none" stroke="#B8BCBE" stroke-miterlimit="10" d="M10.5,27h1c1.4,0,2.5,1.1,2.5,2.5S12.9,32,11.5,32h-1
	C9.1,32,8,30.9,8,29.5S9.1,27,10.5,27z"/>
<path fill="#FFFFFF" stroke="#CCD0D2" stroke-miterlimit="10" d="M8,22h6c1.1,0,2,0.9,2,2v4c0,1.1-0.9,2-2,2H8c-1.1,0-2-0.9-2-2v-4
	C6,22.9,6.9,22,8,22z"/>
<g>
	<g>
		<path fill="#E4E7E7" d="M6,28h10v-1H6V28z M6,24v1h10v-1H6z"/>
	</g>
	<g>
		<path fill="#E4E7E7" d="M6,28h10v-1H6V28z M6,24v1h10v-1H6z"/>
	</g>
</g>
</svg>
