<?xml version="1.0" encoding="utf-8"?>
<!-- Generator: Adobe Illustrator 18.0.0, SVG Export Plug-In . SVG Version: 6.00 Build 0)  -->
<!DOCTYPE svg PUBLIC "-//W3C//DTD SVG 1.1//EN" "http://www.w3.org/Graphics/SVG/1.1/DTD/svg11.dtd">
<svg version="1.1" id="Слой_1" xmlns="http://www.w3.org/2000/svg" xmlns:xlink="http://www.w3.org/1999/xlink" x="0px" y="0px"
	 viewBox="-0.1 -0.2 31.2 32.2" enable-background="new -0.1 -0.2 31.2 32.2" xml:space="preserve">
<g>
	<path fill="#D7D7D7" d="M0.4,6.2v1h30.2v-1H0.4z M0.4,15h30.2v-1H0.4V15z M0.4,11.1h30.2v-1H0.4V11.1z M0.4,18.9h30.2v-1H0.4V18.9z
		 M0.4,26.7h30.2v-1H0.4V26.7z M0.4,22.8h30.2v-1H0.4V22.8z"/>
</g>
<path fill="#E39F99" d="M23.8,2.3h1v29.3h-1V2.3z"/>
<g>
	<rect x="23.8" y="25.7" fill="#DD9791" width="1" height="1"/>
	<rect x="23.8" y="21.8" fill="#DD9791" width="1" height="1"/>
	<rect x="23.8" y="17.9" fill="#DD9791" width="1" height="1"/>
	<rect x="23.8" y="6.2" fill="#DD9791" width="1" height="1"/>
	<rect x="23.8" y="14" fill="#DD9791" width="1" height="1"/>
	<rect x="23.8" y="10.1" fill="#DD9791" width="1" height="1"/>
</g>
<path fill="none" stroke="#E4E7E7" stroke-miterlimit="10" d="M2.4,2.3h26.3c1.1,0,2,0.9,2,2v25.4c0,1.1-0.9,2-2,2H2.4
	c-1.1,0-2-0.9-2-2V4.2C0.4,3.2,1.3,2.3,2.4,2.3z"/>
<g>
	<path fill="#FFFFFF" stroke="#CCD0D2" stroke-miterlimit="10" d="M4.3,0.3c-0.5,0-1,0.4-1,1v2c0,0.5,0.4,1,1,1s1-0.4,1-1v-2
		C5.3,0.8,4.9,0.3,4.3,0.3z M8.2,0.3c-0.5,0-1,0.4-1,1v2c0,0.5,0.4,1,1,1c0.5,0,1-0.4,1-1v-2C9.2,0.8,8.8,0.3,8.2,0.3z M12.1,0.3
		c-0.5,0-1,0.4-1,1v2c0,0.5,0.4,1,1,1s1-0.4,1-1v-2C13.1,0.8,12.7,0.3,12.1,0.3z M16,0.3c-0.5,0-1,0.4-1,1v2c0,0.5,0.4,1,1,1
		c0.5,0,1-0.4,1-1v-2C17,0.8,16.6,0.3,16,0.3z M19.9,0.3c-0.5,0-1,0.4-1,1v2c0,0.5,0.4,1,1,1s1-0.4,1-1v-2
		C20.9,0.8,20.5,0.3,19.9,0.3z M23.8,0.3c-0.5,0-1,0.4-1,1v2c0,0.5,0.4,1,1,1s1-0.4,1-1v-2C24.8,0.8,24.4,0.3,23.8,0.3z M27.7,0.3
		c-0.5,0-1,0.4-1,1v2c0,0.5,0.4,1,1,1s1-0.4,1-1v-2C28.7,0.8,28.3,0.3,27.7,0.3z"/>
</g>
</svg>
