<?xml version="1.0" encoding="utf-8"?>
<!-- Generator: Adobe Illustrator 18.0.0, SVG Export Plug-In . SVG Version: 6.00 Build 0)  -->
<!DOCTYPE svg PUBLIC "-//W3C//DTD SVG 1.1//EN" "http://www.w3.org/Graphics/SVG/1.1/DTD/svg11.dtd">
<svg version="1.1" id="Layer_1" xmlns="http://www.w3.org/2000/svg" xmlns:xlink="http://www.w3.org/1999/xlink" x="0px" y="0px"
	 viewBox="0 0 792 612" enable-background="new 0 0 792 612" xml:space="preserve">
<g>
	<g>
		<path fill="#F4DF60" d="M578.7,612c-3.8,0-7.6-1.3-11.4-2.5l-170.7-89.8l-170.7,89.8c-8.9,5.1-19,3.8-26.6-2.5
			c-7.6-5.1-11.4-15.2-10.1-25.3L222.1,392L83,258c-6.3-6.3-8.9-16.4-6.3-26.6c2.5-8.9,11.4-15.2,20.2-16.4l190.9-27.8l86-173.2
			C377.7,5.1,386.5,0,396.6,0s19,5.1,22.8,13.9l86,173.2L695,215c10.1,1.3,17.7,7.6,20.2,17.7c2.5,8.9,0,19-6.3,26.6L571.1,392
			l31.6,187.1c1.3,2.5,1.3,5.1,1.3,7.6C604,600.6,592.6,612,578.7,612L578.7,612z"/>
	</g>
</g>
</svg>
