<?xml version="1.0" encoding="utf-8"?>
<!-- Generator: Adobe Illustrator 18.0.0, SVG Export Plug-In . SVG Version: 6.00 Build 0)  -->
<!DOCTYPE svg PUBLIC "-//W3C//DTD SVG 1.1//EN" "http://www.w3.org/Graphics/SVG/1.1/DTD/svg11.dtd">
<svg version="1.1" id="Layer_1" xmlns="http://www.w3.org/2000/svg" xmlns:xlink="http://www.w3.org/1999/xlink" x="0px" y="0px"
	 viewBox="0 0 50.7 48.4" enable-background="new 0 0 50.7 48.4" xml:space="preserve">
<g>
	<g>
		<path fill="#F4DF60" d="M39.8,48.4c-0.3,0-0.6-0.1-0.9-0.2l-13.5-7.1l-13.5,7.1c-0.7,0.4-1.5,0.3-2.1-0.2c-0.6-0.4-0.9-1.2-0.8-2
			l2.6-15L0.6,20.4c-0.5-0.5-0.7-1.3-0.5-2.1C0.3,17.6,1,17.1,1.7,17l15.1-2.2l6.8-13.7c0.3-0.7,1-1.1,1.8-1.1
			c0.8,0,1.5,0.4,1.8,1.1l6.8,13.7L49,17c0.8,0.1,1.4,0.6,1.6,1.4c0.2,0.7,0,1.5-0.5,2.1L39.2,31l2.5,14.8c0.1,0.2,0.1,0.4,0.1,0.6
			C41.8,47.5,40.9,48.4,39.8,48.4C39.8,48.4,39.8,48.4,39.8,48.4z M25.3,36.8c0.3,0,0.6,0.1,0.9,0.2l10.8,5.7L35,30.7
			c-0.1-0.6,0.1-1.3,0.6-1.8l8.8-8.6l-12.1-1.8c-0.7-0.1-1.2-0.5-1.5-1.1l-5.4-11l-5.4,11c-0.3,0.6-0.9,1-1.5,1.1L6.3,20.4l8.8,8.6
			c0.5,0.5,0.7,1.1,0.6,1.8l-2.1,12.1l10.8-5.7C24.7,36.9,25,36.8,25.3,36.8z"/>
	</g>
</g>
</svg>
