<?xml version="1.0" encoding="utf-8"?>
<!-- Generator: Adobe Illustrator 16.0.0, SVG Export Plug-In . SVG Version: 6.00 Build 0)  -->
<!DOCTYPE svg PUBLIC "-//W3C//DTD SVG 1.1//EN" "http://www.w3.org/Graphics/SVG/1.1/DTD/svg11.dtd">
<svg version="1.1" id="Слой_1" xmlns="http://www.w3.org/2000/svg" xmlns:xlink="http://www.w3.org/1999/xlink" x="0px" y="0px"
	 width="463.68px" height="181.5px" viewBox="0 0 463.68 181.5" enable-background="new 0 0 463.68 181.5" xml:space="preserve">
<g>
	<g>
		<g>
			<path fill="#FFCC33" d="M120.198,69.017c0-30.265-24.554-54.819-54.819-54.819c-30.265,0-54.819,24.555-54.819,54.819
				c0,23.412,14.276,42.827,34.833,50.821v13.705h39.973v-13.705C105.922,111.844,120.198,91.857,120.198,69.017z"/>
		</g>
		<g>
			<path fill="#FFCC33" d="M120.198,69.017c0-30.265-24.554-54.819-54.819-54.819c-30.265,0-54.819,24.555-54.819,54.819
				c0,23.412,14.276,42.827,34.833,50.821v13.705h39.973v-13.705C105.922,111.844,120.198,91.857,120.198,69.017z"/>
		</g>
	</g>
	<path fill="#FFFFFF" d="M56.242,83.863c0.571,0,1.143,0,2.284,0c2.855,0,5.14-0.571,7.424-1.713
		c2.284,1.143,4.568,1.713,7.423,1.713c0.571,0,1.143,0,2.284,0c-1.713,15.989-3.426,37.688-3.426,39.401h2.284H58.526h2.284
		C59.668,122.123,57.955,99.853,56.242,83.863z M64.237,69.017c0-0.571,0.571-0.571,1.142-0.571l0,0l0,0l0,0
		c0.571,0,1.142,0,1.142,0.571c0.571,1.142,0.571,3.426-0.571,5.71c0,0.571-0.571,0.571-0.571,1.143
		c-0.571-0.571-0.571-1.143-0.571-1.143C63.666,72.442,63.666,70.158,64.237,69.017z M76.799,123.265
		c0-2.284,1.713-25.126,3.426-39.973c5.139-1.142,7.995-3.997,9.136-6.281c1.713-2.854,1.143-6.281-1.713-8.565
		c-2.284-2.284-4.568-2.284-5.71-1.713c-3.427,1.143-5.14,5.71-5.71,6.853c-0.571,1.713-0.571,3.427-1.142,5.71
		c-0.571,0-1.713,0-2.855,0s-2.284,0-3.426-0.57c0.571-0.571,1.142-1.143,1.142-1.713c2.284-3.427,2.284-7.424,0.571-10.279
		c-1.142-1.713-3.426-2.855-5.71-2.855s-4.568,1.143-5.71,2.855c-1.713,2.855-1.713,6.853,0.571,10.279
		c0.571,0.57,0.571,1.142,1.142,1.713c-1.142,0.57-2.284,0.57-3.426,0.57s-1.713,0-2.855,0c-0.571-2.283-0.571-3.997-1.142-5.71
		c-0.571-1.713-2.284-6.281-5.71-6.853c-1.142-0.571-3.426-0.571-5.71,1.713s-2.855,5.711-1.713,8.565
		c1.142,2.855,3.997,5.14,9.137,6.281c1.713,14.847,3.426,37.688,3.426,39.973 M81.368,78.153c0-1.143,0.571-2.855,0.571-3.427
		c0-1.142,1.142-2.855,1.713-3.426c0,0,0,0,0.571,0.57c1.142,1.143,1.142,2.285,0.571,3.427
		C84.223,75.869,83.081,77.012,81.368,78.153z M49.961,78.153c-1.713-1.143-3.426-2.284-3.426-2.855
		c-0.571-1.142-0.571-2.284,0.571-3.427l0.571-0.57c0.571,0,1.713,2.284,1.713,3.426C49.39,75.298,49.961,76.439,49.961,78.153z"/>
	<path fill="#FF9933" d="M50.532,114.699c-20.558-7.994-34.833-27.41-34.833-50.822c0-13.705,5.139-26.838,13.705-35.975
		c-11.42,10.278-18.844,24.555-18.844,41.114c0,23.413,14.276,42.827,34.833,50.822v9.137v4.567h39.973v-5.139H50.532V114.699z"/>
	<path fill="#B8BCBE" d="M63.094,148.391h5.14c6.853,0,12.562,5.71,12.562,12.562s-5.71,12.562-12.562,12.562h-5.14
		c-6.853,0-12.562-5.71-12.562-12.562S56.242,148.391,63.094,148.391z"/>
	<path fill="#CCD0D2" d="M50.532,123.265h29.694c5.71,0,9.708,4.568,9.708,9.708v19.986c0,5.71-4.568,9.707-9.708,9.707H50.532
		c-5.71,0-9.708-4.568-9.708-9.707v-19.986C40.824,127.833,45.392,123.265,50.532,123.265z"/>
	<g>
		<g>
			<path fill="#FFFFFF" d="M40.824,152.959h49.68v-5.14h-49.68V152.959z M40.824,132.973v5.139h49.68v-5.139H40.824z"/>
		</g>
		<g>
			<path fill="#FFFFFF" d="M40.824,152.959h49.68v-5.14h-49.68V152.959z M40.824,132.973v5.139h49.68v-5.139H40.824z"/>
		</g>
	</g>
</g>
<g enable-background="new    ">
	<path fill="#FFCC33" d="M150.719,105.992V18.845h17.623v35.73h12.636v-35.73h17.72v87.147h-17.72V67.114h-12.636v38.878H150.719z"
		/>
	<path fill="#FFCC33" d="M207.946,77.33V48.039c0-20.593,8.489-30.89,25.467-30.89c17.009,0,25.515,10.297,25.515,30.89v28.855
		c0,3.486-0.259,6.705-0.774,9.659c-0.517,2.953-1.396,5.754-2.639,8.399c-1.243,2.647-2.825,4.898-4.745,6.754
		c-1.92,1.856-4.35,3.316-7.286,4.382c-2.938,1.065-6.294,1.598-10.07,1.598c-3.745,0-7.085-0.524-10.022-1.573
		s-5.358-2.47-7.262-4.261c-1.905-1.791-3.478-3.985-4.72-6.584c-1.243-2.599-2.13-5.366-2.663-8.304
		C208.212,84.028,207.946,80.816,207.946,77.33z M241.305,81.3V43.633c0-8.585-2.631-12.878-7.892-12.878
		c-1.582,0-2.922,0.396-4.019,1.186c-1.098,0.792-1.905,1.873-2.421,3.244c-0.517,1.372-0.88,2.728-1.089,4.066
		c-0.21,1.34-0.315,2.801-0.315,4.382V81.3c0,8.554,2.615,12.831,7.844,12.831C238.674,94.131,241.305,89.854,241.305,81.3z"/>
	<path fill="#FFCC33" d="M276.066,105.992l-12.055-87.147h15.008l5.424,57.711l7.455-57.711h12.928l7.311,57.372l5.664-57.372
		h15.058l-12.2,87.147H305.6l-7.311-57.033l-7.165,57.033H276.066z"/>
</g>
<g enable-background="new    ">
	<path fill="#FF9933" d="M334.068,84.06V73.264h20.189V84.06H334.068z"/>
</g>
<g enable-background="new    ">
	<path fill="#FFCC33" d="M368.104,105.992V32.014h-12.781V18.845h42.944v13.169h-12.54v73.979H368.104z"/>
	<path fill="#FFCC33" d="M402.14,77.33V48.039c0-20.593,8.489-30.89,25.467-30.89c17.009,0,25.515,10.297,25.515,30.89v28.855
		c0,3.486-0.259,6.705-0.774,9.659c-0.517,2.953-1.396,5.754-2.639,8.399c-1.243,2.647-2.825,4.898-4.745,6.754
		c-1.92,1.856-4.35,3.316-7.286,4.382c-2.938,1.065-6.294,1.598-10.07,1.598c-3.745,0-7.085-0.524-10.022-1.573
		s-5.357-2.47-7.262-4.261c-1.905-1.791-3.479-3.985-4.721-6.584c-1.243-2.599-2.131-5.366-2.663-8.304
		C402.406,84.028,402.14,80.816,402.14,77.33z M435.498,81.3V43.633c0-8.585-2.631-12.878-7.892-12.878
		c-1.582,0-2.922,0.396-4.019,1.186c-1.098,0.792-1.904,1.873-2.421,3.244c-0.517,1.372-0.88,2.728-1.089,4.066
		c-0.211,1.34-0.315,2.801-0.315,4.382V81.3c0,8.554,2.614,12.831,7.844,12.831C432.867,94.131,435.498,89.854,435.498,81.3z"/>
</g>
<g enable-background="new    ">
	<path fill="#FF9933" d="M134.984,168.805v-15.348h15.735v15.348H134.984z"/>
</g>
<g enable-background="new    ">
	<path fill="#FF9933" d="M172.545,169.327c-2.189,0-4.116-0.31-5.781-0.929c-1.666-0.62-3.031-1.477-4.096-2.571
		c-1.065-1.094-1.932-2.459-2.6-4.096c-0.668-1.637-1.138-3.385-1.409-5.243c-0.271-1.859-0.407-3.961-0.407-6.304V135.34
		c0-2.343,0.135-4.444,0.407-6.304c0.271-1.858,0.741-3.606,1.409-5.243c0.668-1.636,1.534-2.996,2.6-4.081
		c1.065-1.085,2.43-1.937,4.096-2.557c1.665-0.619,3.592-0.93,5.781-0.93c2.42,0,4.512,0.358,6.274,1.075s3.171,1.771,4.227,3.166
		c1.055,1.395,1.849,3.012,2.382,4.852c0.532,1.84,0.847,3.989,0.944,6.448c0.019,0.368,0.029,0.94,0.029,1.714h-7.437v-1.655
		c-0.02-1.026-0.058-1.902-0.116-2.629s-0.165-1.477-0.32-2.251c-0.155-0.774-0.382-1.419-0.683-1.933
		c-0.3-0.513-0.678-0.987-1.133-1.423c-0.456-0.436-1.031-0.756-1.729-0.959s-1.511-0.305-2.44-0.305
		c-1.201,0-2.232,0.193-3.094,0.581c-0.862,0.388-1.535,0.886-2.019,1.496c-0.484,0.609-0.857,1.428-1.119,2.454
		c-0.261,1.027-0.431,2.029-0.508,3.007c-0.078,0.979-0.116,2.184-0.116,3.616v18.592c0,1.239,0.053,2.363,0.16,3.37
		c0.106,1.007,0.314,2.009,0.625,3.006c0.31,0.998,0.711,1.836,1.206,2.513c0.494,0.679,1.152,1.226,1.975,1.642
		c0.823,0.417,1.787,0.625,2.891,0.625c1.104,0,2.052-0.213,2.847-0.64c0.794-0.426,1.418-0.968,1.874-1.627
		c0.455-0.657,0.813-1.5,1.075-2.526c0.262-1.026,0.431-2.023,0.509-2.992c0.077-0.969,0.116-2.092,0.116-3.37v-1.859h7.437v1.859
		c0,2.692-0.238,5.055-0.712,7.088c-0.475,2.033-1.24,3.83-2.295,5.389c-1.056,1.56-2.489,2.745-4.299,3.559
		C177.285,168.921,175.102,169.327,172.545,169.327z"/>
	<path fill="#FF9933" d="M204.761,169.327c-2.615,0-4.856-0.396-6.725-1.19c-1.869-0.794-3.355-1.956-4.459-3.486
		c-1.104-1.529-1.908-3.326-2.411-5.389c-0.504-2.062-0.755-4.459-0.755-7.189V133.19c0-2.73,0.251-5.112,0.755-7.146
		c0.503-2.033,1.307-3.8,2.411-5.301s2.59-2.629,4.459-3.385c1.869-0.755,4.11-1.133,6.725-1.133c5.073,0,8.733,1.452,10.98,4.357
		c2.246,2.905,3.37,7.107,3.37,12.607v18.882c0,2.692-0.257,5.069-0.77,7.132s-1.321,3.863-2.425,5.403
		c-1.104,1.539-2.59,2.711-4.459,3.515C209.587,168.926,207.355,169.327,204.761,169.327z M199.343,160.874
		c0.998,1.569,2.803,2.354,5.418,2.354c2.614,0,4.42-0.784,5.417-2.354c0.997-1.568,1.496-3.883,1.496-6.942v-22.601
		c0-3.021-0.494-5.276-1.481-6.769c-0.988-1.49-2.799-2.236-5.432-2.236c-2.634,0-4.445,0.746-5.432,2.236
		c-0.988,1.492-1.482,3.748-1.482,6.769v22.601C197.847,156.991,198.345,159.306,199.343,160.874z"/>
	<path fill="#FF9933" d="M225.618,168.805v-52.056h10.283l7.379,39.855l7.378-39.855h10.283v52.056h-7.436v-41.075l-7.438,41.075
		h-5.577l-7.437-41.075v41.075H225.618z"/>
</g>
<g enable-background="new    ">
	<path fill="#CCD0D2" d="M271.948,168.805v-52.056h10.283l7.379,39.855l7.378-39.855h10.283v52.056h-7.436v-41.075l-7.438,41.075
		h-5.577l-7.437-41.075v41.075H271.948z"/>
	<path fill="#CCD0D2" d="M335.159,168.456c-1.724,0.6-3.718,0.9-5.984,0.9c-2.266,0-4.261-0.301-5.983-0.9
		c-1.725-0.6-3.143-1.438-4.256-2.513c-1.114-1.075-2.02-2.426-2.717-4.053c-0.697-1.626-1.191-3.384-1.48-5.272
		c-0.291-1.888-0.437-4.022-0.437-6.405v-33.464h7.437v33.464c0,1.608,0.033,2.954,0.102,4.038c0.068,1.085,0.247,2.242,0.537,3.472
		c0.291,1.229,0.693,2.213,1.206,2.948c0.513,0.736,1.239,1.347,2.179,1.83c0.939,0.484,2.077,0.727,3.413,0.727
		c1.337,0,2.474-0.242,3.413-0.727c0.939-0.483,1.666-1.094,2.18-1.83c0.512-0.735,0.914-1.719,1.205-2.948s0.469-2.387,0.537-3.472
		c0.068-1.084,0.102-2.43,0.102-4.038v-33.464h7.438v33.464c0,2.383-0.146,4.518-0.437,6.405c-0.29,1.889-0.784,3.646-1.481,5.272
		c-0.697,1.627-1.603,2.978-2.716,4.053C338.301,167.019,336.883,167.856,335.159,168.456z"/>
	<path fill="#CCD0D2" d="M351.078,168.805v-52.056h5.578l13.014,32.187v-32.187h7.436v52.056h-5.286l-13.305-34.627v34.627H351.078z
		"/>
	<path fill="#CCD0D2" d="M384.891,168.805v-52.056h7.438v52.056H384.891z"/>
	<path fill="#CCD0D2" d="M405.836,168.805v-45.433h-9.296v-6.623h26.028v6.623h-9.297v45.433H405.836z"/>
	<path fill="#CCD0D2" d="M433.607,168.805v-16.732l-11.155-35.323h7.437l7.437,26.027l7.437-26.027h7.437l-11.155,35.323v16.732
		H433.607z"/>
</g>
</svg>
