<?xml version="1.0" encoding="utf-8"?>
<!-- Generator: Adobe Illustrator 18.1.1, SVG Export Plug-In . SVG Version: 6.00 Build 0)  -->
<svg version="1.1" xmlns="http://www.w3.org/2000/svg" xmlns:xlink="http://www.w3.org/1999/xlink" x="0px" y="0px"
	 viewBox="0 0 306 792" enable-background="new 0 0 306 792" xml:space="preserve">
<g id="Getting_started">
	<rect y="504" fill="#8052A1" width="306" height="288"/>
	<text transform="matrix(1 0 0 1 16.3198 504)"><tspan x="0" y="0" fill="#8052A1" font-family="'Oswald-Bold'" font-size="18">GETTING S</tspan><tspan x="73.8" y="0" fill="#8052A1" font-family="'Oswald-Bold'" font-size="18" letter-spacing="-1">T</tspan><tspan x="80.5" y="0" fill="#8052A1" font-family="'Oswald-Bold'" font-size="18">A</tspan><tspan x="90.4" y="0" fill="#8052A1" font-family="'Oswald-Bold'" font-size="18">R</tspan><tspan x="99.9" y="0" fill="#8052A1" font-family="'Oswald-Bold'" font-size="18">TED</tspan></text>
	<text transform="matrix(1 0 0 1 16.3849 549.2441)" fill="#FFFFFF" font-family="'Oswald-Bold'" font-size="29">1</text>
	<text transform="matrix(1 0 0 1 16.425 614.4108)" fill="#FFFFFF" font-family="'Oswald-Bold'" font-size="29">2</text>
	<text transform="matrix(1 0 0 1 16.425 679.5775)" fill="#FFFFFF" font-family="'Oswald-Bold'" font-size="29">3</text>
	<text transform="matrix(1 0 0 1 16.425 744.7441)" fill="#FFFFFF" font-family="'Oswald-Bold'" font-size="29">4</text>
	<rect x="41.9" y="522" fill="none" width="246" height="51"/>
	<text transform="matrix(1 0 0 1 41.8649 528.6777)"><tspan x="0" y="0" fill="#FFFFFF" font-family="'Montserrat-Bold'" font-size="9">Lorem ipsum dolor sit amet, consectetuer </tspan><tspan x="0" y="10.8" fill="#FFFFFF" font-family="'Montserrat-Bold'" font-size="9">adipiscing elit Ae.</tspan><tspan x="94.4" y="10.8" fill="#FFFFFF" font-family="'Montserrat-Regular'" font-size="9"> Lorem ipsum dolor sit amet, </tspan><tspan x="0" y="21.6" fill="#FFFFFF" font-family="'Montserrat-Regular'" font-size="9">consectetur adipiscing elit. Aenean commodo ligula </tspan><tspan x="0" y="32.4" fill="#FFFFFF" font-family="'Montserrat-Regular'" font-size="9">eget dolor. Aenean massa. Cum sociis natoque </tspan><tspan x="0" y="43.2" fill="#FFFFFF" font-family="'Montserrat-Regular'" font-size="9">penatibus et ma. Nulla consequat massa quis enim.</tspan></text>
	<rect x="41.9" y="587.2" fill="none" width="246" height="51"/>
	<text transform="matrix(1 0 0 1 41.8649 593.8444)"><tspan x="0" y="0" fill="#FFFFFF" font-family="'Montserrat-Bold'" font-size="9">Lorem ipsum dolor sit amet, consectetuer </tspan><tspan x="0" y="10.8" fill="#FFFFFF" font-family="'Montserrat-Bold'" font-size="9">adipiscing elit Ae.</tspan><tspan x="94.4" y="10.8" fill="#FFFFFF" font-family="'Montserrat-Regular'" font-size="9"> Lorem ipsum dolor sit amet, </tspan><tspan x="0" y="21.6" fill="#FFFFFF" font-family="'Montserrat-Regular'" font-size="9">consectetur adipiscing elit. Aenean commodo ligula </tspan><tspan x="0" y="32.4" fill="#FFFFFF" font-family="'Montserrat-Regular'" font-size="9">eget dolor. Aenean massa. Cum sociis natoque </tspan><tspan x="0" y="43.2" fill="#FFFFFF" font-family="'Montserrat-Regular'" font-size="9">penatibus et ma. Nulla consequat massa quis enim.</tspan></text>
	<rect x="41.9" y="652.3" fill="none" width="246" height="51"/>
	<text transform="matrix(1 0 0 1 41.8649 659.011)"><tspan x="0" y="0" fill="#FFFFFF" font-family="'Montserrat-Bold'" font-size="9">Lorem ipsum dolor sit amet, consectetuer </tspan><tspan x="0" y="10.8" fill="#FFFFFF" font-family="'Montserrat-Bold'" font-size="9">adipiscing elit Ae.</tspan><tspan x="94.4" y="10.8" fill="#FFFFFF" font-family="'Montserrat-Regular'" font-size="9"> Lorem ipsum dolor sit amet, </tspan><tspan x="0" y="21.6" fill="#FFFFFF" font-family="'Montserrat-Regular'" font-size="9">consectetur adipiscing elit. Aenean commodo ligula </tspan><tspan x="0" y="32.4" fill="#FFFFFF" font-family="'Montserrat-Regular'" font-size="9">eget dolor. Aenean massa. Cum sociis natoque </tspan><tspan x="0" y="43.2" fill="#FFFFFF" font-family="'Montserrat-Regular'" font-size="9">penatibus et ma. Nulla consequat massa quis enim.</tspan></text>
	<rect x="41.9" y="717.5" fill="none" width="246" height="51"/>
	<text transform="matrix(1 0 0 1 41.8649 724.1777)"><tspan x="0" y="0" fill="#FFFFFF" font-family="'Montserrat-Bold'" font-size="9">Lorem ipsum dolor sit amet, consectetuer </tspan><tspan x="0" y="10.8" fill="#FFFFFF" font-family="'Montserrat-Bold'" font-size="9">adipiscing elit Ae.</tspan><tspan x="94.4" y="10.8" fill="#FFFFFF" font-family="'Montserrat-Regular'" font-size="9"> Lorem ipsum dolor sit amet, </tspan><tspan x="0" y="21.6" fill="#FFFFFF" font-family="'Montserrat-Regular'" font-size="9">consectetur adipiscing elit. Aenean commodo ligula </tspan><tspan x="0" y="32.4" fill="#FFFFFF" font-family="'Montserrat-Regular'" font-size="9">eget dolor. Aenean massa. Cum sociis natoque </tspan><tspan x="0" y="43.2" fill="#FFFFFF" font-family="'Montserrat-Regular'" font-size="9">penatibus et ma. Nulla consequat massa quis enim.</tspan></text>
</g>
<g id="Description">
	<rect x="18" y="160.7" fill="none" width="270" height="88"/>
	<text transform="matrix(1 0 0 1 18 168.0864)"><tspan x="0" y="0" fill="#8052A1" font-family="'Montserrat-Regular'" font-size="10">Lorem ipsum dolor sit amet, consectetuer adipiscing </tspan><tspan x="0" y="12" fill="#8052A1" font-family="'Montserrat-Regular'" font-size="10">elit. Aenean commodo ligula eget dolor. Aenean </tspan><tspan x="0" y="24" fill="#8052A1" font-family="'Montserrat-Regular'" font-size="10">massa. Cum sociis natoque penatibus et magnis dis </tspan><tspan x="0" y="36" fill="#8052A1" font-family="'Montserrat-Regular'" font-size="10">parturient montes, nascetur ridiculus mus. Donec </tspan><tspan x="0" y="48" fill="#8052A1" font-family="'Montserrat-Regular'" font-size="10">quam felis, ultricies nec, pellentesque eu, pretium </tspan><tspan x="0" y="60" fill="#8052A1" font-family="'Montserrat-Regular'" font-size="10">quis, sem. Nulla consequat massa quis enim. Donec </tspan><tspan x="0" y="72" fill="#8052A1" font-family="'Montserrat-Regular'" font-size="10">pede justo, fringila vel, aliquet nec, eget et vulputate.</tspan></text>
	<rect x="18" y="257" fill="#CCCCCC" width="270" height="209"/>
</g>
<g id="Title_Block">
	<text transform="matrix(1 0 0 1 18.3999 84.9995)" fill="#8052A1" font-family="'Oswald-Bold'" font-size="48">HOW DO I...</text>
	<text transform="matrix(1 0 0 1 18.3999 40.9995)" fill="#BFA8D0" font-family="'Oswald-Bold'" font-size="24">city, state</text>
	<rect x="18" y="101" fill="none" width="270" height="56"/>
	<text transform="matrix(1 0 0 1 18 118.8076)"><tspan x="0" y="0" fill="#8052A1" font-family="'Montserrat-Regular'" font-size="24">Lorem ipsum dolor sit </tspan><tspan x="0" y="28.8" fill="#8052A1" font-family="'Montserrat-Regular'" font-size="24">amet, consectetur in</tspan></text>
	<rect id="_x3C_Slice_x3E_" fill="none" width="306" height="157"/>
	<rect id="_x3C_Slice_x3E__1_" y="157" fill="none" width="306" height="320"/>
	<rect id="_x3C_Slice_x3E__2_" y="477" fill="none" width="306" height="315"/>
</g>
</svg>
